G75*
G70*
%OFA0B0*%
%FSLAX24Y24*%
%IPPOS*%
%LPD*%
%AMOC8*
5,1,8,0,0,1.08239X$1,22.5*
%
%ADD10C,0.1330*%
%ADD11C,0.0640*%
%ADD12C,0.0560*%
%ADD13OC8,0.0710*%
%ADD14OC8,0.0640*%
%ADD15C,0.0720*%
%ADD16C,0.0680*%
%ADD17C,0.1080*%
%ADD18OC8,0.1080*%
%ADD19OC8,0.0780*%
%ADD20C,0.1970*%
%ADD21C,0.0780*%
%ADD22OC8,0.0740*%
%ADD23OC8,0.0680*%
%ADD24C,0.0840*%
%ADD25C,0.0753*%
%ADD26C,0.0753*%
%ADD27OC8,0.1025*%
%ADD28C,0.0520*%
%ADD29C,0.0480*%
D10*
X002857Y001650D03*
X052357Y001650D03*
X052357Y045150D03*
X002857Y045150D03*
D11*
X025577Y032650D02*
X026137Y032650D01*
X026137Y031650D02*
X025577Y031650D01*
X025577Y030650D02*
X026137Y030650D01*
X026137Y029650D02*
X025577Y029650D01*
X025577Y028650D02*
X026137Y028650D01*
X026137Y027650D02*
X025577Y027650D01*
X025577Y026650D02*
X026137Y026650D01*
X026137Y025650D02*
X025577Y025650D01*
X025577Y024650D02*
X026137Y024650D01*
X026137Y023650D02*
X025577Y023650D01*
X025577Y022650D02*
X026137Y022650D01*
X026137Y021650D02*
X025577Y021650D01*
X025577Y020650D02*
X026137Y020650D01*
X026137Y019650D02*
X025577Y019650D01*
X028577Y019650D02*
X029137Y019650D01*
X029137Y020650D02*
X028577Y020650D01*
X028577Y021650D02*
X029137Y021650D01*
X029137Y022650D02*
X028577Y022650D01*
X028577Y023650D02*
X029137Y023650D01*
X029137Y024650D02*
X028577Y024650D01*
X028577Y025650D02*
X029137Y025650D01*
X029137Y026650D02*
X028577Y026650D01*
X028577Y027650D02*
X029137Y027650D01*
X029137Y028650D02*
X028577Y028650D01*
X028577Y029650D02*
X029137Y029650D01*
X029137Y030650D02*
X028577Y030650D01*
X028577Y031650D02*
X029137Y031650D01*
X029137Y032650D02*
X028577Y032650D01*
X038577Y030150D02*
X039137Y030150D01*
X039137Y029150D02*
X038577Y029150D01*
X038577Y028150D02*
X039137Y028150D01*
X039137Y027150D02*
X038577Y027150D01*
X038577Y026150D02*
X039137Y026150D01*
X039137Y025150D02*
X038577Y025150D01*
X038577Y024150D02*
X039137Y024150D01*
X039137Y023150D02*
X038577Y023150D01*
X041577Y023150D02*
X042137Y023150D01*
X042137Y024150D02*
X041577Y024150D01*
X041577Y025150D02*
X042137Y025150D01*
X042137Y026150D02*
X041577Y026150D01*
X041577Y027150D02*
X042137Y027150D01*
X042137Y028150D02*
X041577Y028150D01*
X041577Y029150D02*
X042137Y029150D01*
X042137Y030150D02*
X041577Y030150D01*
X046077Y019650D02*
X046637Y019650D01*
X044417Y018650D02*
X043857Y018650D01*
X043857Y017650D02*
X044417Y017650D01*
X044417Y016650D02*
X043857Y016650D01*
X040857Y016650D02*
X040297Y016650D01*
X040297Y017650D02*
X040857Y017650D01*
X040857Y018650D02*
X040297Y018650D01*
X033137Y015150D02*
X032577Y015150D01*
X032577Y014150D02*
X033137Y014150D01*
X033137Y013150D02*
X032577Y013150D01*
X032577Y012150D02*
X033137Y012150D01*
X033137Y011150D02*
X032577Y011150D01*
X032577Y010150D02*
X033137Y010150D01*
X033137Y009150D02*
X032577Y009150D01*
X030137Y009150D02*
X029577Y009150D01*
X029577Y010150D02*
X030137Y010150D01*
X030137Y011150D02*
X029577Y011150D01*
X029577Y012150D02*
X030137Y012150D01*
X030137Y013150D02*
X029577Y013150D01*
X029577Y014150D02*
X030137Y014150D01*
X030137Y015150D02*
X029577Y015150D01*
X026637Y015150D02*
X026077Y015150D01*
X023637Y015150D02*
X023077Y015150D01*
X015137Y015150D02*
X014577Y015150D01*
X014577Y016150D02*
X015137Y016150D01*
X015137Y014150D02*
X014577Y014150D01*
X014577Y013150D02*
X015137Y013150D01*
X015137Y012150D02*
X014577Y012150D01*
X014577Y011150D02*
X015137Y011150D01*
X015137Y010150D02*
X014577Y010150D01*
X012137Y010150D02*
X011577Y010150D01*
X011577Y011150D02*
X012137Y011150D01*
X012137Y012150D02*
X011577Y012150D01*
X011577Y013150D02*
X012137Y013150D01*
X012137Y014150D02*
X011577Y014150D01*
X011577Y015150D02*
X012137Y015150D01*
X012137Y016150D02*
X011577Y016150D01*
X012857Y007430D02*
X012857Y006870D01*
X013857Y006870D02*
X013857Y007430D01*
X014857Y007430D02*
X014857Y006870D01*
X016857Y006870D02*
X016857Y007430D01*
X017857Y007430D02*
X017857Y006870D01*
X018857Y006870D02*
X018857Y007430D01*
X036857Y007870D02*
X036857Y008430D01*
X037857Y008430D02*
X037857Y007870D01*
X038857Y007870D02*
X038857Y008430D01*
X049077Y019650D02*
X049637Y019650D01*
D12*
X021097Y023150D02*
X020617Y023150D01*
X020617Y025150D02*
X021097Y025150D01*
D13*
X022357Y025650D03*
X023357Y025650D03*
X022857Y024150D03*
X022857Y023150D03*
X022857Y030650D03*
X021857Y030650D03*
X015357Y034150D03*
X013357Y034150D03*
X009857Y015150D03*
X007857Y015150D03*
D14*
X006857Y012650D03*
X006857Y011150D03*
X009857Y011150D03*
X009857Y012650D03*
X017857Y012150D03*
X017857Y011150D03*
X017857Y010150D03*
X020857Y010150D03*
X020857Y011150D03*
X020857Y012150D03*
X020857Y014150D03*
X023357Y012150D03*
X023357Y011150D03*
X023857Y010150D03*
X023357Y008150D03*
X023357Y007150D03*
X026857Y010150D03*
X027357Y011150D03*
X027357Y012150D03*
X023857Y014150D03*
X028857Y017650D03*
X032857Y017650D03*
X035357Y012150D03*
X035357Y010150D03*
X039357Y010150D03*
X039357Y012150D03*
X040857Y012150D03*
X038857Y013650D03*
X040857Y015150D03*
X038857Y016650D03*
X043857Y021650D03*
X043857Y023150D03*
X045357Y023150D03*
X046857Y023150D03*
X046857Y021650D03*
X048357Y023150D03*
X048357Y026150D03*
X046857Y026150D03*
X045357Y026150D03*
X043857Y026150D03*
X043857Y029150D03*
X046857Y029150D03*
X036857Y025650D03*
X036357Y027150D03*
X035357Y027150D03*
X034357Y027150D03*
X033857Y025650D03*
X032357Y024150D03*
X035357Y024150D03*
X035357Y030150D03*
X036357Y030150D03*
X034357Y030150D03*
X033357Y030150D03*
X032357Y030150D03*
X031357Y030150D03*
X031357Y033150D03*
X032357Y033150D03*
X033357Y033150D03*
X024357Y033150D03*
X021357Y033150D03*
X045357Y016650D03*
X048357Y016650D03*
X048857Y012150D03*
X045857Y012150D03*
X027357Y008150D03*
X027357Y007150D03*
D15*
X050537Y027650D02*
X051177Y027650D01*
X051177Y028650D02*
X050537Y028650D01*
X050537Y029650D02*
X051177Y029650D01*
X051177Y030650D02*
X050537Y030650D01*
X050537Y031650D02*
X051177Y031650D01*
X026957Y035760D02*
X026317Y035760D01*
X024397Y035760D02*
X023757Y035760D01*
X023757Y037540D02*
X024397Y037540D01*
X026317Y037540D02*
X026957Y037540D01*
X018357Y040330D02*
X018357Y040970D01*
X017357Y040970D02*
X017357Y040330D01*
X016357Y040330D02*
X016357Y040970D01*
D16*
X009857Y034450D02*
X009857Y033850D01*
X008857Y033850D02*
X008857Y034450D01*
X020857Y007450D02*
X020857Y006850D01*
X021857Y006850D02*
X021857Y007450D01*
X020357Y004450D02*
X020357Y003850D01*
X019357Y003850D02*
X019357Y004450D01*
X018357Y004450D02*
X018357Y003850D01*
X017357Y003850D02*
X017357Y004450D01*
X015357Y004450D02*
X015357Y003850D01*
X014357Y003850D02*
X014357Y004450D01*
X011857Y004450D02*
X011857Y003850D01*
X010857Y003850D02*
X010857Y004450D01*
X009857Y004450D02*
X009857Y003850D01*
X008857Y003850D02*
X008857Y004450D01*
X006357Y004450D02*
X006357Y003850D01*
X005357Y003850D02*
X005357Y004450D01*
X024857Y004450D02*
X024857Y003850D01*
X025857Y003850D02*
X025857Y004450D01*
X029357Y006850D02*
X029357Y007450D01*
X030357Y007450D02*
X030357Y006850D01*
X031857Y006850D02*
X031857Y007450D01*
X032857Y007450D02*
X032857Y006850D01*
X050557Y012150D02*
X051157Y012150D01*
X051157Y013150D02*
X050557Y013150D01*
X050557Y014150D02*
X051157Y014150D01*
X051157Y016650D02*
X050557Y016650D01*
X050557Y017650D02*
X051157Y017650D01*
D17*
X017357Y015150D03*
X005357Y011150D03*
D18*
X003357Y011150D03*
X019357Y015150D03*
D19*
X035357Y022150D03*
X036357Y022150D03*
X036357Y034650D03*
X036357Y035650D03*
X033357Y035650D03*
X033357Y034650D03*
X030357Y034650D03*
X030357Y035650D03*
X039357Y035650D03*
X039357Y034650D03*
X042357Y034650D03*
X042357Y035650D03*
X045357Y037150D03*
X046357Y037150D03*
X046357Y040150D03*
X045357Y040150D03*
X045357Y043150D03*
X046357Y043150D03*
X014357Y036650D03*
X012857Y039650D03*
D20*
X005515Y042189D03*
X004334Y040339D03*
X003192Y042189D03*
D21*
X012857Y040650D03*
X013357Y036650D03*
D22*
X017357Y037650D03*
X018357Y037650D03*
X022857Y040150D03*
X023857Y040150D03*
X008857Y038150D03*
X007857Y038150D03*
D23*
X020857Y039150D03*
X020857Y041150D03*
D24*
X010357Y041650D03*
X010357Y037650D03*
D25*
X050521Y037150D02*
X051194Y037150D01*
X051194Y036150D02*
X050521Y036150D01*
X050521Y035150D02*
X051194Y035150D01*
D26*
X052857Y035150D03*
X052857Y037150D03*
D27*
X047357Y033650D03*
X028357Y038150D03*
X021357Y035650D03*
X015357Y028650D03*
X026357Y013650D03*
X018357Y008650D03*
X022857Y002150D03*
X028357Y004650D03*
X032357Y004650D03*
X036357Y004650D03*
X042857Y009150D03*
X005857Y007650D03*
D28*
X010357Y017650D03*
X011357Y018150D03*
X012357Y018650D03*
X017857Y016650D03*
X019357Y016150D03*
X022357Y027650D03*
X024857Y029150D03*
X037357Y029650D03*
X041357Y032150D03*
X045357Y031150D03*
X046857Y028150D03*
X038857Y036150D03*
D29*
X015857Y025650D03*
M02*
