%
M48
M72
T01C0.0200
T02C0.0240
T03C0.0320
T04C0.0360
T05C0.0400
T06C0.0433
T07C0.0440
T08C0.0630
T09C0.1181
T10C0.1250
%
T01
X15857Y25650
T02
X20857Y25150
X20857Y23150
X22357Y27650
X24857Y29150
X37357Y29650
X41357Y32150
X45357Y31150
X46857Y28150
X38857Y36150
X17857Y16650
X19357Y16150
X12357Y18650
X11357Y18150
X10357Y17650
T03
X11857Y16150
X11857Y15150
X11857Y14150
X11857Y13150
X11857Y12150
X11857Y11150
X11857Y10150
X9857Y11150
X9857Y12650
X9857Y15150
X7857Y15150
X6857Y12650
X6857Y11150
X12857Y7150
X13857Y7150
X14857Y7150
X16857Y7150
X17857Y7150
X18857Y7150
X17857Y10150
X17857Y11150
X17857Y12150
X14857Y12150
X14857Y11150
X14857Y10150
X14857Y13150
X14857Y14150
X14857Y15150
X14857Y16150
X20857Y14150
X20857Y12150
X20857Y11150
X20857Y10150
X23357Y11150
X23357Y12150
X23857Y10150
X23357Y8150
X23357Y7150
X26857Y10150
X27357Y11150
X27357Y12150
X29857Y12150
X29857Y11150
X29857Y10150
X29857Y9150
X27357Y8150
X27357Y7150
X32857Y9150
X32857Y10150
X32857Y11150
X32857Y12150
X32857Y13150
X32857Y14150
X32857Y15150
X32857Y17650
X29857Y15150
X29857Y14150
X29857Y13150
X26357Y15150
X23857Y14150
X23357Y15150
X25857Y19650
X25857Y20650
X25857Y21650
X25857Y22650
X25857Y23650
X25857Y24650
X25857Y25650
X25857Y26650
X25857Y27650
X25857Y28650
X25857Y29650
X25857Y30650
X25857Y31650
X25857Y32650
X24357Y33150
X22857Y30650
X21857Y30650
X21357Y33150
X18357Y37650
X17357Y37650
X14357Y36650
X13357Y36650
X13357Y34150
X15357Y34150
X20857Y39150
X22857Y40150
X23857Y40150
X20857Y41150
X12857Y40650
X12857Y39650
X8857Y38150
X7857Y38150
X22357Y25650
X23357Y25650
X22857Y24150
X22857Y23150
X28857Y22650
X28857Y21650
X28857Y20650
X28857Y19650
X28857Y17650
X35357Y22150
X36357Y22150
X35357Y24150
X33857Y25650
X34357Y27150
X35357Y27150
X36357Y27150
X36857Y25650
X38857Y25150
X38857Y24150
X38857Y23150
X41857Y23150
X41857Y24150
X41857Y25150
X41857Y26150
X41857Y27150
X41857Y28150
X41857Y29150
X41857Y30150
X43857Y29150
X46857Y29150
X46857Y26150
X45357Y26150
X43857Y26150
X43857Y23150
X43857Y21650
X45357Y23150
X46857Y23150
X46857Y21650
X48357Y23150
X48357Y26150
X49357Y19650
X46357Y19650
X43857Y18650
X43857Y17650
X43857Y16650
X45357Y16650
X48357Y16650
X48857Y12150
X45857Y12150
X40857Y12150
X39357Y12150
X38857Y13650
X40857Y15150
X40857Y16650
X40857Y17650
X40857Y18650
X38857Y16650
X35357Y12150
X35357Y10150
X36857Y8150
X37857Y8150
X38857Y8150
X39357Y10150
X28857Y23650
X28857Y24650
X28857Y25650
X28857Y26650
X28857Y27650
X28857Y28650
X28857Y29650
X28857Y30650
X28857Y31650
X28857Y32650
X30357Y34650
X30357Y35650
X31357Y33150
X32357Y33150
X33357Y33150
X33357Y34650
X33357Y35650
X36357Y35650
X36357Y34650
X39357Y34650
X39357Y35650
X42357Y35650
X42357Y34650
X45357Y37150
X46357Y37150
X46357Y40150
X45357Y40150
X45357Y43150
X46357Y43150
X38857Y30150
X38857Y29150
X38857Y28150
X38857Y27150
X38857Y26150
X36357Y30150
X35357Y30150
X34357Y30150
X33357Y30150
X32357Y30150
X31357Y30150
X32357Y24150
T04
X50857Y17650
X50857Y16650
X50857Y14150
X50857Y13150
X50857Y12150
X32857Y7150
X31857Y7150
X30357Y7150
X29357Y7150
X25857Y4150
X24857Y4150
X21857Y7150
X20857Y7150
X20357Y4150
X19357Y4150
X18357Y4150
X17357Y4150
X15357Y4150
X14357Y4150
X11857Y4150
X10857Y4150
X9857Y4150
X8857Y4150
X6357Y4150
X5357Y4150
X8857Y34150
X9857Y34150
T05
X16357Y40650
X17357Y40650
X18357Y40650
X24077Y37540
X24077Y35760
X26637Y35760
X26637Y37540
X50857Y31650
X50857Y30650
X50857Y29650
X50857Y28650
X50857Y27650
X19357Y15150
X17357Y15150
X5357Y11150
X3357Y11150
T06
X50857Y35150
X50857Y36150
X50857Y37150
X52857Y37150
X52857Y35150
T07
X10357Y37650
X10357Y41650
T08
X21357Y35650
X28357Y38150
X15357Y28650
X26357Y13650
X18357Y8650
X22857Y2150
X28357Y4650
X32357Y4650
X36357Y4650
X42857Y9150
X47357Y33650
X5857Y7650
T09
X4334Y40339
X3192Y42189
X5515Y42189
T10
X2857Y1650
X52357Y1650
X52357Y45150
X2857Y45150
M30
